<?xml version="1.0" encoding="UTF-8"?>
<svg version="1.1" xmlns="http://www.w3.org/2000/svg" width="480" height="154">
<path d="M0 0 C5.42441584 4.69166173 9.42952274 10.3149555 10.3125 17.56640625 C10.64983236 25.14584272 9.13474024 31.01174137 4.421875 37.0078125 C-1.23459702 43.09743778 -6.22724974 45.13446885 -14.4375 45.4375 C-23.45194787 45.18968013 -28.36608983 42.11376855 -34.5546875 35.78125 C-36.94993511 32.82926917 -38 30.83480506 -38 27 C-42.16317558 27.06919511 -46.32540626 27.1573113 -50.48779297 27.26245117 C-51.9017449 27.29556291 -53.31582464 27.32363716 -54.72998047 27.34643555 C-56.77105823 27.38023775 -58.81097928 27.43255964 -60.8515625 27.48828125 C-62.07697754 27.51446533 -63.30239258 27.54064941 -64.56494141 27.56762695 C-68.33725238 28.04245018 -70.7761008 29.00717772 -74 31 C-76.6755203 35.01328045 -77.33852601 39.28174225 -78.32421875 43.93164062 C-79.42385229 48.71012945 -81.17871035 51.92146187 -84 56 C-83.35722255 58.92820839 -82.17037743 60.74908052 -80.49609375 63.21484375 C-78.21599465 67.45951909 -77.80164319 71.90716744 -77.0390625 76.625 C-75.79098064 80.67892001 -74.30130704 82.37710917 -71 85 C-68.6025129 85.99515646 -68.6025129 85.99515646 -66.1875 86.3125 C-65.39730469 86.45300781 -64.60710937 86.59351562 -63.79296875 86.73828125 C-62.90544922 86.86783203 -62.90544922 86.86783203 -62 87 C-61.95875 86.34 -61.9175 85.68 -61.875 85 C-60.03586949 78.69440969 -56.10589369 74.24963286 -50.4375 71 C-43.77443258 68.03528674 -36.67625675 67.75351434 -29.640625 69.62890625 C-22.98324525 72.50602967 -17.88661144 78.32591201 -15.0625 84.9375 C-12.81411006 92.1323478 -13.45184779 98.21619558 -16.80859375 104.9296875 C-20.9629138 112.14866989 -26.22779123 115.40926374 -34 118 C-40.9638028 118.86869524 -46.91177086 117.44597788 -53 114 C-56.90320187 110.89616235 -60.07874342 107.65535249 -62 103 C-62 102.01 -62 101.02 -62 100 C-63.11375 100.0825 -64.2275 100.165 -65.375 100.25 C-72.76967964 100.18467597 -78.98284659 97.48383915 -84.3125 92.375 C-88.51960656 87.33154093 -89.86331885 81.60406003 -91.19067383 75.29638672 C-92.02444381 71.55062605 -92.62286621 69.42427551 -95.21875 66.50390625 C-98.56319209 64.69546495 -101.02605593 64.40298764 -104.8125 64.25 C-105.97394531 64.19328125 -107.13539063 64.1365625 -108.33203125 64.078125 C-109.21246094 64.05234375 -110.09289062 64.0265625 -111 64 C-111.3403125 64.65226562 -111.680625 65.30453125 -112.03125 65.9765625 C-116.12253962 73.35394112 -120.58002621 78.87876817 -128.875 81.4375 C-135.92000633 82.77743258 -142.91858288 81.79009318 -149.18359375 78.296875 C-154.31026889 74.6365392 -157.49001425 69.71718977 -160 64 C-163.96 64 -167.92 64 -172 64 C-172.495 65.175625 -172.99 66.35125 -173.5 67.5625 C-176.7261481 73.9468773 -181.70474527 78.39092691 -188.375 81 C-195.50534605 82.97587903 -202.68371546 81.97201842 -209.1171875 78.3515625 C-214.78203499 74.28509521 -218.760867 69.09665388 -220.62890625 62.35546875 C-221.77932742 55.05332177 -220.31857791 48.01605363 -216 42 C-211.27948465 36.68141031 -206.09716227 33.11812673 -199 32 C-191.29923042 31.72454479 -184.67856893 33.59233344 -178.984375 38.8671875 C-175.59987556 42.51309137 -173.69022498 44.9762106 -173 50 C-168.53113821 50.59673229 -164.44316919 50.87267036 -160 50 C-157.81467147 47.7034022 -156.73398867 45.47297314 -155.37890625 42.6171875 C-152.88689009 37.88729847 -148.89338013 35.25418695 -144.0625 33.16015625 C-137.629876 31.17589925 -130.96820982 31.85838084 -124.75 34.25 C-117.8493008 38.64135404 -114.59622215 42.69616829 -111 50 C-108.9367016 49.93958131 -106.87422586 49.85068362 -104.8125 49.75 C-103.66394531 49.70359375 -102.51539063 49.6571875 -101.33203125 49.609375 C-97.29752887 48.87152931 -95.72717225 48.06806878 -93 45 C-91.90157738 42.17062886 -91.31136588 39.27714942 -90.6875 36.3125 C-88.83106198 28.77997829 -86.71355225 22.54424211 -80 18 C-71.52043354 13.11992297 -62.82071731 13.52764912 -53.375 13.75 C-51.87893032 13.77010759 -50.38283436 13.78835079 -48.88671875 13.8046875 C-45.25725762 13.84831885 -41.62880181 13.91710697 -38 14 C-37.54753906 12.58291748 -37.54753906 12.58291748 -37.0859375 11.13720703 C-35.17758756 5.62410074 -31.66248969 1.57288995 -26.6328125 -1.3984375 C-17.35023104 -5.47583309 -8.81225144 -5.19995663 0 0 Z M-24 13 C-26.33031854 15.96585996 -26.47119441 19.23622643 -26.39453125 22.96484375 C-25.68647817 26.61727597 -23.62465368 28.43783808 -21 31 C-17.51556578 32.74221711 -13.80112955 32.58675154 -10 32 C-6.92530477 30.29748281 -4.59386746 28.18773492 -3 25 C-2.60228673 20.22744077 -2.52546571 17.91517328 -4.75 13.625 C-7.95257743 9.88865966 -9.50430385 9.16618846 -14.375 8.625 C-18.69296607 9.07168615 -20.69326548 10.2315711 -24 13 Z M-204 48 C-207.33141153 51.21653527 -207.84287012 54.44323354 -208 59 C-206.49203437 63.12706383 -204.93005435 65.92580465 -201 68 C-196.94136867 69.05223775 -194.71170686 69.26004674 -190.75 67.8125 C-186.6630934 65.11885701 -185.3588341 63.38407437 -184.125 58.625 C-183.9795613 54.4072777 -184.69373124 52.4991664 -187 49 C-192.01999958 43.80071472 -198.2684001 44.22235461 -204 48 Z M-144 48 C-147.05525735 51.4494841 -147.4872472 54.6158694 -147.27734375 59.07421875 C-146.84355559 62.0862971 -146.01999021 63.71936589 -144 66 C-140.23506872 68.17207574 -137.7289874 69 -133.375 69 C-129.34653364 67.80638034 -127.65710364 66.20415439 -125 63 C-123.39944465 59.79888929 -123.64518769 56.48117737 -124 53 C-125.50443507 49.01767188 -126.67481285 48.16840049 -130.5 46.1875 C-136.03075074 44.31099528 -138.8787299 45.3479137 -144 48 Z M-49 87 C-50.73125121 90.46250243 -50.47815224 94.21408229 -50 98 C-47.93240751 101.47060168 -45.89055567 103.77725393 -42 105 C-37.71738649 105.47584595 -35.52559976 105.27767535 -31.6875 103.25 C-27.88379401 100.06550196 -27.16984457 98.52860114 -26.625 93.625 C-27.06939355 89.32919568 -28.29591294 87.32216411 -31 84 C-37.75162405 79.4989173 -43.73422086 81.47093191 -49 87 Z " fill="#EB5579" transform="translate(237,22)"/>
<path d="M0 0 C3.42492621 3.62639245 4.99642569 6.8297776 5.2578125 11.75 C5.02449103 16.36153025 4.64375766 18.6274908 1.625 22.25 C0.8 22.91 -0.025 23.57 -0.875 24.25 C-1.205 24.91 -1.535 25.57 -1.875 26.25 C-1.39289063 26.62511719 -0.91078125 27.00023438 -0.4140625 27.38671875 C4.04164756 30.99675323 6.66910785 33.42195322 7.37109375 39.31640625 C7.6986199 45.18210191 6.5689308 48.50296025 3.125 53.25 C-3.28466027 59.33095974 -10.32140853 60.15205811 -18.875 60.25 C-26.00087262 59.5677356 -31.01821478 57.10678522 -36.125 52 C-38.81868421 47.76706767 -40.31093963 43.97008167 -39.5 38.91015625 C-37.99376647 33.76671109 -35.85593947 30.9081606 -31.875 27.25 C-31.875 23.32176899 -33.39254449 22.18381106 -35.875 19.25 C-37.84523371 15.30953257 -37.55278201 10.43012684 -36.26171875 6.27734375 C-33.75794471 1.25876583 -29.84429734 -1.3603379 -24.875 -3.75 C-16.2842009 -6.54200971 -7.533469 -4.58558983 0 0 Z M-22.3125 6.8125 C-24.47896028 10.19217804 -24.43788002 12.30983987 -23.875 16.25 C-21.940696 18.97235378 -20.56886319 20.00092091 -17.4375 21.125 C-14.31545054 21.2772951 -12.59075805 20.79137619 -9.875 19.25 C-7.72295572 16.60885475 -7.87890619 15.13867355 -8 11.6875 C-8.59906131 8.29452907 -8.59906131 8.29452907 -10.5 6.3125 C-14.75401017 4.40939019 -18.34870591 4.27160635 -22.3125 6.8125 Z M-23.875 34.25 C-25.97601595 36.9240203 -25.87346976 38.29284685 -25.75 41.75 C-24.76544665 45.68821339 -24.31453029 47.10029357 -20.875 49.25 C-16.10660731 50.19476566 -12.91058347 49.92629941 -8.8125 47.25 C-6.12580027 43.08994881 -6.1754267 41.14701312 -6.875 36.25 C-8.74515094 33.81880377 -10.15638345 32.60930827 -12.875 31.25 C-17.51054388 30.83795166 -20.17916098 31.37545854 -23.875 34.25 Z " fill="#1D213C" transform="translate(395.875,44.75)"/>
<path d="M0 0 C4.25587947 2.45565119 6.69169211 6.04426465 8.625 10.5 C9.68388279 14.67945324 9.75410326 18.65146238 9.7578125 22.953125 C9.75876923 23.65395203 9.75972595 24.35477905 9.76071167 25.07684326 C9.76138915 26.54927664 9.75956512 28.02171307 9.75537109 29.49414062 C9.74998434 31.75657758 9.75534709 34.01881891 9.76171875 36.28125 C9.76105852 37.71354211 9.75977851 39.14583409 9.7578125 40.578125 C9.75668457 41.88168945 9.75555664 43.18525391 9.75439453 44.52832031 C9.625 47.5 9.625 47.5 8.625 48.5 C6.62700428 48.59873816 4.62542842 48.62971799 2.625 48.625 C1.531875 48.62757812 0.43875 48.63015625 -0.6875 48.6328125 C-3.375 48.5 -3.375 48.5 -4.375 47.5 C-4.49730817 45.18315001 -4.55483281 42.86283635 -4.5859375 40.54296875 C-4.61401447 39.10610856 -4.64267899 37.66925976 -4.671875 36.23242188 C-4.71309436 33.96118588 -4.74996908 31.69016047 -4.77636719 29.41870117 C-4.80402059 27.23050651 -4.84989986 25.0432866 -4.8984375 22.85546875 C-4.9281665 20.88549927 -4.9281665 20.88549927 -4.95849609 18.87573242 C-5.39209323 15.36146065 -5.83009072 13.9144485 -8.375 11.5 C-11.95424379 10.57204791 -14.51284695 10.30405613 -18.125 11.125 C-21.03422072 12.90285711 -21.8865666 14.43146095 -23.375 17.5 C-23.87636024 20.9777572 -23.87636024 20.9777572 -23.88671875 24.76953125 C-23.90466995 25.45053391 -23.92262115 26.13153656 -23.94111633 26.83317566 C-23.99498631 28.9928888 -24.02903782 31.15238399 -24.0625 33.3125 C-24.09569391 34.78323331 -24.13018549 36.25393793 -24.16601562 37.72460938 C-24.25069716 41.31619687 -24.31761961 44.90786076 -24.375 48.5 C-28.665 48.5 -32.955 48.5 -37.375 48.5 C-37.375 32.33 -37.375 16.16 -37.375 -0.5 C-33.415 -0.5 -29.455 -0.5 -25.375 -0.5 C-24.715 0.82 -24.055 2.14 -23.375 3.5 C-22.611875 2.860625 -21.84875 2.22125 -21.0625 1.5625 C-15.21095438 -2.92822106 -6.68183026 -2.88909613 0 0 Z " fill="#181D38" transform="translate(454.375,55.5)"/>
<path d="M0 0 C4.25587947 2.45565119 6.69169211 6.04426465 8.625 10.5 C9.68388279 14.67945324 9.75410326 18.65146238 9.7578125 22.953125 C9.75876923 23.65395203 9.75972595 24.35477905 9.76071167 25.07684326 C9.76138915 26.54927664 9.75956512 28.02171307 9.75537109 29.49414062 C9.74998434 31.75657758 9.75534709 34.01881891 9.76171875 36.28125 C9.76105852 37.71354211 9.75977851 39.14583409 9.7578125 40.578125 C9.75668457 41.88168945 9.75555664 43.18525391 9.75439453 44.52832031 C9.625 47.5 9.625 47.5 8.625 48.5 C6.62700428 48.59873816 4.62542842 48.62971799 2.625 48.625 C1.531875 48.62757812 0.43875 48.63015625 -0.6875 48.6328125 C-3.375 48.5 -3.375 48.5 -4.375 47.5 C-4.49730817 45.18315001 -4.55483281 42.86283635 -4.5859375 40.54296875 C-4.61401447 39.10610856 -4.64267899 37.66925976 -4.671875 36.23242188 C-4.71309436 33.96118588 -4.74996908 31.69016047 -4.77636719 29.41870117 C-4.80402059 27.23050651 -4.84989986 25.0432866 -4.8984375 22.85546875 C-4.9281665 20.88549927 -4.9281665 20.88549927 -4.95849609 18.87573242 C-5.39209323 15.36146065 -5.83009072 13.9144485 -8.375 11.5 C-11.95424379 10.57204791 -14.51284695 10.30405613 -18.125 11.125 C-21.03422072 12.90285711 -21.8865666 14.43146095 -23.375 17.5 C-23.87636024 20.9777572 -23.87636024 20.9777572 -23.88671875 24.76953125 C-23.90466995 25.45053391 -23.92262115 26.13153656 -23.94111633 26.83317566 C-23.99498631 28.9928888 -24.02903782 31.15238399 -24.0625 33.3125 C-24.09569391 34.78323331 -24.13018549 36.25393793 -24.16601562 37.72460938 C-24.25069716 41.31619687 -24.31761961 44.90786076 -24.375 48.5 C-28.665 48.5 -32.955 48.5 -37.375 48.5 C-37.375 32.33 -37.375 16.16 -37.375 -0.5 C-33.415 -0.5 -29.455 -0.5 -25.375 -0.5 C-24.715 0.82 -24.055 2.14 -23.375 3.5 C-22.611875 2.860625 -21.84875 2.22125 -21.0625 1.5625 C-15.21095438 -2.92822106 -6.68183026 -2.88909613 0 0 Z " fill="#181D38" transform="translate(333.375,55.5)"/>
<path d="M0 0 C2.44077852 2.44077852 2.23616181 3.74882359 2.25224304 7.07984924 C2.24505753 7.76635056 2.23787201 8.45285187 2.23046875 9.16015625 C2.22978142 10.21776405 2.22978142 10.21776405 2.2290802 11.29673767 C2.22605863 12.78711632 2.2181751 14.27749184 2.20581055 15.76782227 C2.18754456 18.05691633 2.18530091 20.34560627 2.18554688 22.63476562 C2.18063206 24.08073269 2.1748039 25.52669699 2.16796875 26.97265625 C2.16685593 27.66118179 2.1657431 28.34970734 2.16459656 29.05909729 C2.11605499 33.88394501 2.11605499 33.88394501 1 35 C-0.99799572 35.09873816 -2.99957158 35.12971799 -5 35.125 C-6.093125 35.12757812 -7.18625 35.13015625 -8.3125 35.1328125 C-11 35 -11 35 -12 34 C-12.08790975 31.70848583 -12.10694038 29.41427476 -12.09765625 27.12109375 C-12.0962413 26.4344313 -12.09482635 25.74776886 -12.09336853 25.04029846 C-12.08775479 22.83932199 -12.07520007 20.63844591 -12.0625 18.4375 C-12.05748676 16.94856917 -12.05292355 15.45963676 -12.04882812 13.97070312 C-12.03778093 10.31376925 -12.02050713 6.65689442 -12 3 C-11.67 3 -11.34 3 -11 3 C-11 12.9 -11 22.8 -11 33 C-7.37 33 -3.74 33 0 33 C0 22.11 0 11.22 0 0 Z " fill="#9FA1AC" transform="translate(462,69)"/>
<path d="M0 0 C2.44077852 2.44077852 2.23616181 3.74882359 2.25224304 7.07984924 C2.24505753 7.76635056 2.23787201 8.45285187 2.23046875 9.16015625 C2.22978142 10.21776405 2.22978142 10.21776405 2.2290802 11.29673767 C2.22605863 12.78711632 2.2181751 14.27749184 2.20581055 15.76782227 C2.18754456 18.05691633 2.18530091 20.34560627 2.18554688 22.63476562 C2.18063206 24.08073269 2.1748039 25.52669699 2.16796875 26.97265625 C2.16685593 27.66118179 2.1657431 28.34970734 2.16459656 29.05909729 C2.11605499 33.88394501 2.11605499 33.88394501 1 35 C-0.99799572 35.09873816 -2.99957158 35.12971799 -5 35.125 C-6.093125 35.12757812 -7.18625 35.13015625 -8.3125 35.1328125 C-11 35 -11 35 -12 34 C-12.08790975 31.70848583 -12.10694038 29.41427476 -12.09765625 27.12109375 C-12.0962413 26.4344313 -12.09482635 25.74776886 -12.09336853 25.04029846 C-12.08775479 22.83932199 -12.07520007 20.63844591 -12.0625 18.4375 C-12.05748676 16.94856917 -12.05292355 15.45963676 -12.04882812 13.97070312 C-12.03778093 10.31376925 -12.02050713 6.65689442 -12 3 C-11.67 3 -11.34 3 -11 3 C-11 12.9 -11 22.8 -11 33 C-7.37 33 -3.74 33 0 33 C0 22.11 0 11.22 0 0 Z " fill="#9FA1AC" transform="translate(341,69)"/>
<path d="M0 0 C-2.06230268 0.1690907 -4.1248523 0.33517133 -6.1875 0.5 C-7.91033203 0.63921875 -7.91033203 0.63921875 -9.66796875 0.78125 C-12.46072426 0.9645962 -15.20319812 1.04213637 -18 1 C-13.62451257 -3.37548743 -4.8930381 -3.2620254 0 0 Z " fill="#5E5B70" transform="translate(387,42)"/>
<path d="M0 0 C0.66 0.33 1.32 0.66 2 1 C-0.97 3.97 -3.94 6.94 -7 10 C-7.66 9.67 -8.32 9.34 -9 9 C-8.06725891 7.87105124 -7.12859878 6.74699124 -6.1875 5.625 C-5.66542969 4.99851562 -5.14335938 4.37203125 -4.60546875 3.7265625 C-3 2 -3 2 0 0 Z " fill="#F0829C" transform="translate(89,57)"/>
<path d="M0 0 C0.66 0.33 1.32 0.66 2 1 C-0.31 3.31 -2.62 5.62 -5 8 C-5.33 7.34 -5.66 6.68 -6 6 C-2.25 1.125 -2.25 1.125 0 0 Z " fill="#EE718F" transform="translate(184,95)"/>
</svg>
